<svg width="45" height="45" xmlns="http://www.w3.org/2000/svg" xmlns:svg="http://www.w3.org/2000/svg">
 <g>
  <title>Layer 1</title>
  <path id="svg_1" fill="" d="m38.28651,6.61238c-8.74487,-8.7445 -22.97406,-8.7445 -31.71891,0c-3.06822,3.06803 -5.16698,6.92243 -6.06962,11.14666c-0.87875,4.11317 -0.59092,8.37467 0.83236,12.32355c0.171,0.47419 0.69422,0.72004 1.16828,0.54919c0.47437,-0.17099 0.72023,-0.69402 0.54923,-1.16821c-1.30764,-3.62818 -1.57206,-7.54358 -0.76451,-11.32328c0.82871,-3.87873 2.75663,-7.41883 5.57518,-10.23722c8.03315,-8.03268 21.10395,-8.03268 29.13711,0c3.82556,3.82549 5.96708,8.91048 6.02992,14.31859c0.06283,5.39822 -1.94907,10.52384 -5.66478,14.43238c-0.04397,0.04624 -0.08747,0.0928 -0.131,0.13935c-0.07698,0.0823 -0.15381,0.16476 -0.23415,0.24508c-8.03315,8.03268 -21.10395,8.03268 -29.13711,0c-0.04275,-0.04275 -0.08444,-0.08625 -0.12567,-0.12978c-0.00213,-0.08427 -0.00396,-0.16734 -0.00396,-0.24919c0,-0.18377 0.0035,-0.36679 0.0102,-0.54919c0.00228,-0.06101 0.00685,-0.1214 0.00988,-0.18225c0.00594,-0.12124 0.01157,-0.24251 0.02039,-0.36314c0.00533,-0.07196 0.01309,-0.14315 0.01948,-0.21481c0.00959,-0.10878 0.01857,-0.21756 0.03044,-0.32572c0.00837,-0.07636 0.01932,-0.15213 0.0289,-0.2282c0.01294,-0.1027 0.02525,-0.20569 0.04047,-0.30791c0.01157,-0.07789 0.02525,-0.15502 0.03804,-0.23246c0.01627,-0.09965 0.0321,-0.19929 0.05051,-0.29832c0.01445,-0.07834 0.03103,-0.15594 0.04685,-0.23383c0.01962,-0.09721 0.03895,-0.19458 0.06055,-0.29118c0.0175,-0.07834 0.03697,-0.15623 0.05568,-0.23413c0.02282,-0.09508 0.04549,-0.19016 0.07015,-0.28449c0.02053,-0.07819 0.04275,-0.15578 0.06435,-0.23353c0.02601,-0.0931 0.05188,-0.18636 0.07971,-0.27885c0.02327,-0.0776 0.04822,-0.15457 0.07286,-0.23155c0.02921,-0.09143 0.05843,-0.18302 0.08931,-0.27369c0.02617,-0.07653 0.05356,-0.15259 0.08094,-0.22865c0.0324,-0.09006 0.06496,-0.18012 0.09905,-0.26959c0.0289,-0.07562 0.05887,-0.15045 0.08901,-0.22547c0.03545,-0.08839 0.0712,-0.17678 0.10832,-0.2644c0.03164,-0.07455 0.06421,-0.14849 0.09707,-0.22241c0.03849,-0.08686 0.07744,-0.17342 0.11761,-0.25938c0.03423,-0.07318 0.06922,-0.14589 0.10467,-0.21847c0.04169,-0.08534 0.08383,-0.17054 0.12704,-0.25497c0.03668,-0.07151 0.07394,-0.1427 0.11182,-0.2136c0.04473,-0.08398 0.09022,-0.16765 0.13662,-0.25087c0.0391,-0.06998 0.07866,-0.13966 0.11882,-0.20887c0.04776,-0.0823 0.0963,-0.16414 0.14576,-0.2457c0.04154,-0.06845 0.08353,-0.13662 0.12613,-0.20447c0.05081,-0.08064 0.10239,-0.16081 0.15473,-0.24036c0.04382,-0.06679 0.08794,-0.13326 0.13281,-0.19929c0.0537,-0.07911 0.10863,-0.1573 0.16401,-0.23534c0.0461,-0.06496 0.0922,-0.12978 0.13937,-0.19382c0.05675,-0.07728 0.11471,-0.1538 0.17298,-0.22987c0.04822,-0.06298 0.0963,-0.12597 0.1456,-0.18818c0.0598,-0.07562 0.12094,-0.1503 0.18226,-0.2247c0.05006,-0.06086 0.1001,-0.12171 0.15123,-0.1818c0.06298,-0.07393 0.12735,-0.14681 0.19184,-0.21953c0.05204,-0.05872 0.10376,-0.1176 0.15671,-0.1754c0.06603,-0.07211 0.13343,-0.14285 0.20098,-0.2136c0.05386,-0.0566 0.10742,-0.11333 0.16217,-0.16917c0.06922,-0.07028 0.13998,-0.13904 0.21056,-0.20812c0.05538,-0.05401 0.1103,-0.10863 0.1666,-0.16187c0.07272,-0.06877 0.14712,-0.13586 0.22121,-0.2031c0.05659,-0.05126 0.11243,-0.10315 0.16979,-0.15366c0.07653,-0.06739 0.15503,-0.13282 0.23307,-0.19869c0.0572,-0.04822 0.1138,-0.09721 0.17177,-0.14468c0.08079,-0.06602 0.16355,-0.13007 0.24602,-0.19458c0.0575,-0.04488 0.11411,-0.09082 0.17222,-0.13494c0.08688,-0.06588 0.17557,-0.12946 0.26412,-0.19335c0.05584,-0.04046 0.11061,-0.08185 0.16721,-0.12156c0.09768,-0.06861 0.19762,-0.13479 0.29728,-0.20127c0.04913,-0.03271 0.09721,-0.06664 0.14666,-0.09889c0.12992,-0.08443 0.26214,-0.16612 0.39526,-0.24676c0.0207,-0.01246 0.04077,-0.02587 0.06161,-0.03833c0.15397,-0.09219 0.31005,-0.18165 0.46798,-0.26867c0.054,-0.02967 0.10954,-0.05752 0.16415,-0.08657c0.10482,-0.05599 0.20934,-0.11241 0.316,-0.16597c0.06831,-0.03438 0.13829,-0.06664 0.20722,-0.09995c0.08703,-0.04214 0.17375,-0.08474 0.26183,-0.12535c1.65452,1.58034 3.86163,2.47504 6.15254,2.47504c2.29091,0 4.49817,-0.89484 6.15269,-2.47533c3.22978,1.49469 5.87322,4.1766 7.30835,7.43799c0.20296,0.46126 0.74139,0.67105 1.20312,0.46796c0.46143,-0.2031 0.67094,-0.74179 0.46784,-1.20305c-1.56979,-3.56748 -4.30267,-6.41828 -7.76188,-8.13918c1.00367,-1.47217 1.54666,-3.21058 1.54666,-5.0045c0,-4.91642 -4.00007,-8.91626 -8.91678,-8.91626c-0.50404,0 -0.91284,0.40878 -0.91284,0.91279s0.4088,0.91279 0.91284,0.91279c3.91015,0 7.09109,3.18092 7.09109,7.09069c0,1.74829 -0.64978,3.43177 -1.82948,4.73996c-0.00015,0.00015 -0.0003,0.0003 -0.00046,0.00045c-1.34705,1.49363 -3.26462,2.35028 -5.26131,2.35028s-3.9144,-0.85665 -5.26131,-2.35028c-0.00015,-0.0003 -0.00046,-0.00045 -0.00076,-0.00061c-1.17954,-1.30863 -1.82918,-2.99166 -1.82918,-4.73966c0,-1.90834 0.74716,-3.69861 2.10394,-5.04072c0.35844,-0.35462 0.36149,-0.93257 0.00685,-1.29083c-0.35448,-0.35858 -0.93246,-0.36131 -1.2909,-0.007c-1.70595,1.68713 -2.64557,3.93822 -2.64557,6.33794c0,1.7921 0.54161,3.52929 1.5436,5.00071c-0.00898,0.00441 -0.01764,0.00928 -0.02647,0.01385c-0.0712,0.0356 -0.14073,0.07332 -0.21132,0.10969c-0.10817,0.05599 -0.21666,0.11167 -0.32329,0.16993c-0.07546,0.04107 -0.14925,0.08427 -0.22395,0.12642c-0.09966,0.05644 -0.19946,0.11259 -0.29774,0.17085c-0.07622,0.04533 -0.15123,0.09219 -0.22669,0.13859c-0.09432,0.05811 -0.18865,0.11608 -0.28162,0.17586c-0.07592,0.04883 -0.15047,0.09903 -0.22547,0.14894c-0.09022,0.06009 -0.18028,0.1205 -0.26914,0.18225c-0.0747,0.05203 -0.14849,0.10512 -0.22228,0.15821c-0.08672,0.06253 -0.17313,0.12535 -0.25848,0.1894c-0.07318,0.05492 -0.14544,0.11061 -0.21757,0.16659c-0.08368,0.06496 -0.16674,0.13037 -0.2489,0.19686c-0.0712,0.05752 -0.1418,0.11577 -0.21209,0.17433c-0.08079,0.06755 -0.16097,0.13586 -0.24039,0.20492c-0.06892,0.05979 -0.13739,0.12003 -0.20524,0.18104c-0.07835,0.07043 -0.15564,0.14164 -0.23247,0.21344c-0.06633,0.06192 -0.13252,0.12399 -0.19794,0.18712c-0.07592,0.07332 -0.15062,0.14772 -0.22517,0.22241c-0.06359,0.06374 -0.12719,0.12733 -0.18957,0.19199c-0.07379,0.07653 -0.14621,0.15441 -0.21847,0.2323c-0.06041,0.06511 -0.12126,0.12992 -0.18059,0.19609c-0.07227,0.08032 -0.14255,0.16232 -0.21314,0.24402c-0.05675,0.06572 -0.11395,0.13084 -0.16963,0.19731c-0.07166,0.08566 -0.14103,0.17297 -0.21086,0.25999c-0.05188,0.06481 -0.10482,0.1287 -0.15579,0.19427c-0.07333,0.09432 -0.14423,0.19048 -0.21543,0.28631c-0.04473,0.06024 -0.09068,0.11942 -0.1345,0.18027c-0.09006,0.12475 -0.17725,0.25132 -0.26366,0.37851c-0.02266,0.03346 -0.04671,0.06602 -0.06922,0.09965c-0.10756,0.16065 -0.21209,0.32312 -0.31387,0.48744c-0.03514,0.05675 -0.06817,0.11471 -0.10255,0.17176c-0.06587,0.10937 -0.13206,0.21862 -0.1955,0.32952c-0.03956,0.06922 -0.07698,0.13966 -0.11548,0.20949c-0.05554,0.1004 -0.11138,0.20051 -0.16462,0.30213c-0.03956,0.0753 -0.07698,0.15153 -0.11548,0.22743c-0.0496,0.09797 -0.09934,0.1958 -0.14697,0.29483c-0.03788,0.07881 -0.07394,0.15853 -0.11061,0.23778c-0.04504,0.09783 -0.09022,0.1955 -0.13343,0.29422c-0.0356,0.08138 -0.06968,0.16355 -0.10391,0.24555c-0.04123,0.09842 -0.08216,0.19686 -0.12141,0.29604c-0.03301,0.08336 -0.06467,0.16719 -0.0963,0.25102c-0.03743,0.0995 -0.0744,0.19914 -0.11,0.29939c-0.03012,0.08504 -0.05934,0.17054 -0.08824,0.25618c-0.03393,0.10056 -0.06694,0.20141 -0.09889,0.30289c-0.02723,0.08625 -0.05356,0.17282 -0.07942,0.25954c-0.03044,0.10238 -0.0598,0.20508 -0.08824,0.30821c-0.02403,0.08702 -0.04762,0.17419 -0.07029,0.26182c-0.02694,0.10421 -0.05249,0.20887 -0.07744,0.31385c-0.02084,0.08763 -0.04154,0.1751 -0.06085,0.26303c-0.02344,0.10633 -0.04519,0.21328 -0.06648,0.32038c-0.0175,0.08763 -0.0353,0.17525 -0.05143,0.26333c-0.01994,0.10923 -0.03788,0.21907 -0.05568,0.32905c-0.014,0.08672 -0.02876,0.17327 -0.04137,0.26029c-0.01659,0.11349 -0.03058,0.22759 -0.04487,0.34169c-0.01049,0.08459 -0.02207,0.16901 -0.03134,0.25391c-0.01309,0.11958 -0.02312,0.23991 -0.03362,0.36024c-0.007,0.08017 -0.01536,0.16004 -0.02114,0.24068c-0.00974,0.13433 -0.01613,0.26927 -0.02266,0.40436c-0.0032,0.06709 -0.00822,0.13373 -0.01065,0.20096c-0.0073,0.20265 -0.0114,0.40604 -0.0114,0.6102c0,0.22043 0.00746,0.42886 0.01643,0.65903c0.00213,0.05324 0.00959,0.10497 0.02023,0.15549c0.00091,0.00396 0.00137,0.00791 0.00228,0.01187c0.01126,0.04975 0.02708,0.09752 0.0461,0.14377c0.00183,0.00457 0.0035,0.00913 0.00548,0.0137c0.01962,0.04565 0.04306,0.08915 0.06953,0.13053c0.00335,0.00517 0.00653,0.01034 0.00988,0.01536c0.02723,0.04062 0.0575,0.07881 0.09053,0.11439c0.00243,0.00259 0.00411,0.00579 0.00653,0.00836l0.1205,0.12825c0.09097,0.09736 0.18196,0.19442 0.2769,0.2892c4.3725,4.37226 10.11595,6.55838 15.85954,6.55838s11.48703,-2.18614 15.85954,-6.55838c0.09493,-0.09478 0.1859,-0.19199 0.2769,-0.2892l0.1205,-0.12825c4.04525,-4.25526 6.23546,-9.83483 6.16715,-15.71136c-0.068,-5.88823 -2.3994,-11.42431 -6.56409,-15.58874l0.00002,0.00011l-0.00001,0.00002z" fill="#000000"/>
  <g id="svg_2"/>
  <g id="svg_3"/>
  <g id="svg_4"/>
  <g id="svg_5"/>
  <g id="svg_6"/>
  <g id="svg_7"/>
  <g id="svg_8"/>
  <g id="svg_9"/>
  <g id="svg_10"/>
  <g id="svg_11"/>
  <g id="svg_12"/>
  <g id="svg_13"/>
  <g id="svg_14"/>
  <g id="svg_15"/>
  <g id="svg_16"/>
 </g>
</svg>