<svg width="45" height="45" xmlns="http://www.w3.org/2000/svg" xmlns:svg="http://www.w3.org/2000/svg">
 <g>
  <title>Layer 1</title>
  <g id="Calendar">
   <path id="svg_1" d="m39.67901,5.4345l-3.73932,0l0,-2.23469a2.99145,2.97959 0 0 0 -5.98291,0l0,2.23469l-14.95727,0l0,-2.23469a2.99145,2.97959 0 0 0 -5.98291,0l0,2.23469l-3.73932,0a5.24103,5.22024 0 0 0 -5.23505,5.21428l0,29.051a5.24103,5.22024 0 0 0 5.23505,5.21428l34.40173,0a5.24103,5.22024 0 0 0 5.23505,-5.21428l0,-29.051a5.24103,5.22024 0 0 0 -5.23505,-5.21428zm-8.2265,-2.23469a1.49573,1.48979 0 0 1 2.99145,0l0,5.95918a1.49573,1.48979 0 0 1 -2.99145,0l0,-5.95918zm-20.94018,0a1.49573,1.48979 0 0 1 2.99145,0l0,5.95918a1.49573,1.48979 0 0 1 -2.99145,0l0,-5.95918zm-8.97436,7.44897a3.74381,3.72896 0 0 1 3.73932,-3.72449l3.73932,0l0,2.23469a2.99145,2.97959 0 0 0 5.98291,0l0,-2.23469l14.95727,0l0,2.23469a2.99145,2.97959 0 0 0 5.98291,0l0,-2.23469l3.73932,0a3.74381,3.72896 0 0 1 3.73932,3.72449l0,4.46938l-41.88037,0l0,-4.46938zm41.88037,29.051a3.74381,3.72896 0 0 1 -3.73932,3.72449l-34.40173,0a3.74381,3.72896 0 0 1 -3.73932,-3.72449l0,-23.09182l41.88037,0l0,23.09182z" fill="" />
   <path id="svg_2" d="m16.08799,27.5704l4.432,-4.432a1,1 0 0 0 -0.707,-1.707l-9,0a1,1 0 0 0 0,2l6.586,0l-4.293,4.293a1,1 0 0 0 0,1.414a0.968,0.968 0 0 0 0.531,0.259a0.366,0.366 0 0 0 0.176,0.034l1,0a4,4 0 0 1 0,8l-1,0a3,3 0 0 1 -3,-3a1,1 0 0 0 -2,0a5.006,5.006 0 0 0 5,5l1,0a6,6 0 0 0 1.275,-11.861z" fill="" />
   <path id="svg_3" d="m32.88086,39.4314a1,1 0 0 1 -1,-1l0,-13.586l-2.293,2.293a1,1 0 0 1 -1.414,-1.414l4,-4a1,1 0 0 1 1.707,0.707l0,16a1,1 0 0 1 -1,1z" fill="" />
  </g>
 </g>
</svg>