<svg width="45" height="34.7" xmlns="http://www.w3.org/2000/svg" xmlns:svg="http://www.w3.org/2000/svg">
 <g>
  <title>Layer 1</title>
  <g id="svg_1" stroke="null">
   <g id="svg_2" stroke="null">
    <g id="svg_3" stroke="null">
     <path fill="" d="m42.55382,0.13119l-40.12553,0c-1.23111,0 -2.2292,1.0056 -2.2292,2.24617l0,29.94888c0,1.24048 0.998,2.24617 2.2292,2.24617l40.12553,0c1.23111,0 2.2292,-1.0056 2.2292,-2.24617l0,-29.94888c0,-1.24048 -0.998,-2.24617 -2.2292,-2.24617zm0.74304,32.19514c0,0.41352 -0.33264,0.74869 -0.74304,0.74869l-40.12553,0c-0.4104,0 -0.74304,-0.33517 -0.74304,-0.74869l0,-29.94897c0,-0.41352 0.33264,-0.74869 0.74304,-0.74869l40.12553,0c0.4104,0 0.74304,0.33517 0.74304,0.74869l0,29.94897z" id="svg_4" stroke="null"/>
     <path fill="" d="m41.13236,3.12886c-0.19636,-0.01728 -0.3915,0.04475 -0.54241,0.1725l-17.1426,14.51016c-0.55286,0.46827 -1.35981,0.46827 -1.91267,0l-17.14243,-14.51025c-0.20333,-0.17197 -0.48232,-0.22163 -0.7318,-0.13021c-0.24948,0.09143 -0.43165,0.31008 -0.4778,0.57356s0.05068,0.53171 0.25401,0.70368l17.14252,14.50946c1.10485,0.93734 2.71892,0.93734 3.82385,0l17.14243,-14.50937c0.15099,-0.12766 0.24539,-0.31052 0.26254,-0.50837c0.01715,-0.19786 -0.04441,-0.39448 -0.1712,-0.54654c-0.12661,-0.15223 -0.30808,-0.24734 -0.50444,-0.26463l0,0.00001z" id="svg_5" stroke="null"/>
     <path fill="" d="m14.49068,18.85485c-0.26306,-0.05914 -0.53718,0.02983 -0.71656,0.23251l-10.40294,11.23084c-0.18826,0.19426 -0.2574,0.47608 -0.1806,0.73632c0.0768,0.26033 0.28744,0.45827 0.55042,0.51741c0.26306,0.05914 0.53718,-0.02983 0.71656,-0.23251l10.40294,-11.23084c0.18826,-0.19426 0.2574,-0.47608 0.1806,-0.73632c-0.0768,-0.26024 -0.28736,-0.45827 -0.55042,-0.51741z" id="svg_6" stroke="null"/>
     <path fill="" d="m31.208,19.08736c-0.17929,-0.20268 -0.4535,-0.29165 -0.71656,-0.23251c-0.26306,0.05914 -0.47362,0.25717 -0.55042,0.51741c-0.0768,0.26033 -0.00766,0.54206 0.1806,0.73632l10.40294,11.23084c0.28213,0.29112 0.7433,0.302 1.03858,0.02439c0.29528,-0.27761 0.31653,-0.74194 0.04781,-1.0457l-10.40294,-11.23075l-0.00001,0z" id="svg_7" stroke="null"/>
    </g>
   </g>
  </g>
  <g id="svg_8"/>
  <g id="svg_9"/>
  <g id="svg_10"/>
  <g id="svg_11"/>
  <g id="svg_12"/>
  <g id="svg_13"/>
  <g id="svg_14"/>
  <g id="svg_15"/>
  <g id="svg_16"/>
  <g id="svg_17"/>
  <g id="svg_18"/>
  <g id="svg_19"/>
  <g id="svg_20"/>
  <g id="svg_21"/>
  <g id="svg_22"/>
 </g>
</svg>