<svg width="45" height="45" xmlns="http://www.w3.org/2000/svg" xmlns:svg="http://www.w3.org/2000/svg">
 <g>
  <title>Layer 1</title>
  <g stroke="null" id="svg_1">
   <path fill="" stroke="null" d="m22.43591,19.44446c2.88675,0 5.23505,-2.34904 5.23505,-5.23505s-2.34829,-5.23505 -5.23505,-5.23505s-5.23505,2.34904 -5.23505,5.23505s2.34829,5.23505 5.23505,5.23505zm0,-8.97437c2.06186,0 3.73932,1.67746 3.73932,3.73932s-1.67746,3.73932 -3.73932,3.73932s-3.73932,-1.67746 -3.73932,-3.73932s1.67746,-3.73932 3.73932,-3.73932z" id="svg_2"/>
   <path fill="" stroke="null" d="m22.30354,40.95078l11.47298,-16.57042c4.30321,-5.73686 3.68099,-15.16668 -1.33195,-20.17886c-2.70876,-2.70951 -6.31047,-4.2015 -10.14103,-4.2015s-7.43227,1.49199 -10.14103,4.20075c-5.01293,5.01218 -5.63515,14.442 -1.34915,20.15642l11.49018,16.5936zm-9.08355,-35.69255c2.42682,-2.42607 5.65235,-3.7625 9.08355,-3.7625s6.65674,1.33643 9.08355,3.7625c4.52458,4.52383 5.08173,13.0405 1.17639,18.24713l-10.25994,14.81742l-10.2764,-14.83986c-3.88889,-5.18419 -3.33099,-13.70086 1.19284,-18.22469z" id="svg_3"/>
   <path fill="" stroke="null" d="m31.49778,32.16338c-0.41133,-0.05011 -0.78227,0.24455 -0.83013,0.65513s0.2453,0.78227 0.65513,0.83013c7.86454,0.92586 12.05332,3.42073 12.05332,4.86635c0,2.0297 -7.96624,4.86111 -20.94019,4.86111s-20.94019,-2.83141 -20.94019,-4.86111c0,-1.44562 4.18878,-3.94049 12.05332,-4.86635c0.40983,-0.04786 0.70299,-0.4203 0.65513,-0.83013c-0.04861,-0.41058 -0.41955,-0.70673 -0.83013,-0.65513c-7.87426,0.92735 -13.37405,3.53889 -13.37405,6.35161c0,3.15898 7.70674,6.35684 22.43591,6.35684s22.43591,-3.19787 22.43591,-6.35684c0,-2.81272 -5.49979,-5.42426 -13.37405,-6.35161z" id="svg_4"/>
  </g>
  <g id="svg_5"/>
  <g id="svg_6"/>
  <g id="svg_7"/>
  <g id="svg_8"/>
  <g id="svg_9"/>
  <g id="svg_10"/>
  <g id="svg_11"/>
  <g id="svg_12"/>
  <g id="svg_13"/>
  <g id="svg_14"/>
  <g id="svg_15"/>
  <g id="svg_16"/>
  <g id="svg_17"/>
  <g id="svg_18"/>
  <g id="svg_19"/>
 </g>
</svg>