<svg width="45" height="45" xmlns="http://www.w3.org/2000/svg" xmlns:svg="http://www.w3.org/2000/svg">
 <g>
  <title>Layer 1</title>
  <g id="svg_1" stroke="null">
   <g id="svg_2" stroke="null">
    <path fill="" id="svg_3" d="m29.52469,0c-8.45912,0 -15.3412,6.80899 -15.3412,15.17827c0,1.86061 0.33413,3.66868 0.99388,5.38571l-14.66877,14.51403c-0.20966,0.20752 -0.32748,0.48881 -0.32748,0.78212l0,7.94169c0,0.61091 0.50053,1.10612 1.11799,1.10612l6.61488,0c0.29619,0 0.58023,-0.11622 0.78989,-0.3233l2.22916,-2.20215c0.21011,-0.20752 0.3281,-0.48916 0.3281,-0.78282l0,-2.70816l2.73377,0c0.61746,0 1.11799,-0.49522 1.11799,-1.10612l0,-1.08411l1.09583,0c0.61737,0 1.11799,-0.49522 1.11799,-1.10612l0,-2.38012l2.40567,0c0.29645,0 0.58076,-0.11657 0.79051,-0.324l3.55682,-3.51904c1.73572,0.65336 3.56347,0.98438 5.44476,0.98438c8.45912,0 15.3412,-6.80899 15.3412,-15.17827c0.00009,-8.3691 -6.8819,-15.17809 -15.34102,-15.17809l0.00003,-0.00002zm0,28.14411c-1.82996,0 -3.59982,-0.36567 -5.26054,-1.087c-0.42943,-0.18647 -0.91303,-0.08385 -1.2297,0.22147c-0.00346,0.00325 -0.00683,0.00588 -0.0102,0.0093l-3.75478,3.7149l-3.06054,0c-0.61746,0 -1.11799,0.49522 -1.11799,1.10612l0,2.38012l-1.09583,0c-0.61737,0 -1.11799,0.49522 -1.11799,1.10612l0,1.08411l-2.73386,0c-0.61737,0 -1.11799,0.49522 -1.11799,1.10612l0,3.35555l-1.57385,1.55467l-5.03412,0l0,-1.56309l13.66496,-13.51974c0.393,-0.38882 0.393,-1.01911 0,-1.40785s-1.02987,-0.38891 -1.42314,0l-12.24182,12.1119l0,-1.9984l14.86664,-14.7098c0.00337,-0.00333 0.00594,-0.0064 0.00904,-0.00965c0.30869,-0.31304 0.41277,-0.7915 0.22429,-1.21672c-0.72837,-1.643 -1.09752,-3.39397 -1.09752,-5.20388c0,-7.14948 5.87898,-12.96602 13.10521,-12.96602s13.10503,5.81645 13.10503,12.96602c-0.00018,7.14931 -5.87925,12.96576 -13.1053,12.96576l0,-0.00001z" stroke="null"/>
   </g>
  </g>
  <g id="svg_4" stroke="null">
   <g id="svg_5" stroke="null">
    <path fill="" id="svg_6" d="m31.06639,8.89948c-2.07601,0 -3.76491,1.7092 -3.76491,3.81016s1.6889,3.81016 3.76491,3.81016s3.76491,-1.7092 3.76491,-3.81016s-1.68882,-3.81016 -3.76491,-3.81016zm0,5.5859c-0.96751,0 -1.75465,-0.7966 -1.75465,-1.77574s0.78714,-1.77574 1.75465,-1.77574s1.75465,0.7966 1.75465,1.77574s-0.78714,1.77574 -1.75465,1.77574z" stroke="null"/>
   </g>
  </g>
  <g id="svg_7"/>
  <g id="svg_8"/>
  <g id="svg_9"/>
  <g id="svg_10"/>
  <g id="svg_11"/>
  <g id="svg_12"/>
  <g id="svg_13"/>
  <g id="svg_14"/>
  <g id="svg_15"/>
  <g id="svg_16"/>
  <g id="svg_17"/>
  <g id="svg_18"/>
  <g id="svg_19"/>
  <g id="svg_20"/>
  <g id="svg_21"/>
 </g>
</svg>