<svg width="45" height="45" xmlns="http://www.w3.org/2000/svg" xmlns:svg="http://www.w3.org/2000/svg">
 <g>
  <title>Layer 1</title>
  <g stroke="null" id="svg_1">
   <g stroke="null" id="svg_2">
    <path fill="" stroke="null" d="m35.47394,27.80555c-0.91545,-0.9507 -2.01966,-1.459 -3.18993,-1.459c-1.16083,0 -2.27448,0.49888 -3.22768,1.44959l-2.9823,2.96506c-0.24538,-0.13178 -0.49076,-0.25415 -0.7267,-0.37652c-0.33976,-0.16943 -0.66064,-0.32945 -0.93433,-0.49888c-2.79355,-1.76962 -5.33228,-4.07578 -7.7672,-7.05967c-1.17971,-1.48724 -1.97247,-2.73915 -2.54817,-4.00989c0.77389,-0.70597 1.49115,-1.44017 2.18954,-2.14614c0.26425,-0.26356 0.52851,-0.53653 0.79276,-0.8001c1.98191,-1.97671 1.98191,-4.53701 0,-6.51372l-2.57648,-2.56972c-0.29257,-0.2918 -0.59457,-0.59301 -0.8777,-0.89422c-0.56626,-0.5836 -1.16083,-1.18602 -1.77428,-1.7508c-0.91545,-0.90364 -2.01022,-1.3837 -3.16162,-1.3837s-2.26504,0.48006 -3.20881,1.3837c-0.00944,0.00941 -0.00944,0.00941 -0.01888,0.01883l-3.20881,3.22862c-1.20802,1.20485 -1.89697,2.67326 -2.04797,4.37699c-0.2265,2.74856 0.58514,5.30887 1.20802,6.98437c1.5289,4.11343 3.81282,7.92566 7.21982,12.01085c4.1337,4.92294 9.10735,8.81047 14.78883,11.54962c2.17066,1.02601 5.06803,2.24027 8.30515,2.44735c0.19819,0.00941 0.40582,0.01883 0.59457,0.01883c2.1801,0 4.01101,-0.78127 5.44553,-2.3344c0.00944,-0.01883 0.02831,-0.02824 0.03775,-0.04706c0.49076,-0.59301 1.05702,-1.12955 1.65159,-1.70373c0.40582,-0.38593 0.82108,-0.79068 1.2269,-1.21426c0.93433,-0.96953 1.42509,-2.09907 1.42509,-3.25686c0,-1.1672 -0.5002,-2.28733 -1.4534,-3.22862l-5.18128,-5.1865l-0.00001,-0.00002zm3.37869,9.91178c-0.00944,0 -0.00944,0.00941 0,0c-0.36807,0.39534 -0.74558,0.75303 -1.1514,1.14837c-0.61345,0.5836 -1.23633,1.19544 -1.82147,1.88258c-0.9532,1.01659 -2.07629,1.49665 -3.54856,1.49665c-0.14157,0 -0.29257,0 -0.43413,-0.00941c-2.80299,-0.17884 -5.40778,-1.27074 -7.36138,-2.20262c-5.34172,-2.57913 -10.03224,-6.24075 -13.93,-10.8813c-3.21825,-3.8687 -5.37003,-7.4456 -6.79512,-11.28606c-0.8777,-2.34381 -1.19858,-4.16991 -1.05702,-5.89247c0.09438,-1.10131 0.51907,-2.01436 1.3024,-2.79563l3.21825,-3.2098c0.46245,-0.43299 0.9532,-0.66832 1.43453,-0.66832c0.59457,0 1.07589,0.35769 1.3779,0.6589c0.00944,0.00941 0.01888,0.01883 0.02831,0.02824c0.5757,0.53653 1.12308,1.0919 1.69878,1.68491c0.29257,0.30121 0.59457,0.60243 0.89658,0.91305l2.57648,2.56972c1.00039,0.99777 1.00039,1.92023 0,2.918c-0.27369,0.27297 -0.53795,0.54595 -0.81164,0.80951c-0.79276,0.80951 -1.54778,1.56254 -2.36885,2.29675c-0.01888,0.01883 -0.03775,0.02824 -0.04719,0.04706c-0.81164,0.80951 -0.66064,1.60019 -0.49076,2.13673c0.00944,0.02824 0.01888,0.05648 0.02831,0.08472c0.67007,1.61902 1.61384,3.14391 3.04837,4.96059l0.00944,0.00941c2.6048,3.20038 5.35116,5.6948 8.38065,7.60562c0.38694,0.24474 0.78333,0.44241 1.16083,0.63066c0.33976,0.16943 0.66064,0.32945 0.93433,0.49888c0.03775,0.01883 0.0755,0.04706 0.11325,0.06589c0.32088,0.16002 0.62289,0.23532 0.93433,0.23532c0.78333,0 1.27409,-0.48947 1.43453,-0.64949l3.22768,-3.21921c0.32088,-0.32004 0.83051,-0.70597 1.42509,-0.70597c0.58514,0 1.06646,0.3671 1.35902,0.68714c0.00944,0.00941 0.00944,0.00941 0.01888,0.01883l5.20016,5.1865c0.97208,0.96012 0.97208,1.94847 0.00944,2.94624l-0.00002,0.00001z" id="svg_3"/>
    <path fill="" stroke="null" d="m24.29974,10.78704c2.47267,0.41417 4.71883,1.58137 6.51199,3.36982s2.95399,4.02872 3.37869,6.4949c0.10381,0.62125 0.64176,1.05424 1.25521,1.05424c0.0755,0 0.14157,-0.00941 0.21707,-0.01883c0.69839,-0.11295 1.16083,-0.77186 1.04758,-1.46841c-0.50963,-2.98389 -1.92528,-5.70421 -4.08651,-7.85977s-4.88871,-3.56749 -7.88045,-4.07578c-0.69839,-0.11295 -1.34959,0.34828 -1.47228,1.03542s0.33032,1.35546 1.02871,1.46841l-0.00001,0z" id="svg_4"/>
    <path fill="" stroke="null" d="m44.79836,19.85166c-0.83995,-4.91353 -3.16162,-9.38465 -6.72906,-12.94273s-8.05033,-5.87364 -12.97679,-6.71139c-0.68895,-0.12237 -1.34015,0.34828 -1.46284,1.03542c-0.11325,0.69655 0.34919,1.34604 1.04758,1.46841c4.39795,0.74362 8.40896,2.82387 11.5989,5.99601c3.18993,3.18156 5.26622,7.18204 6.0118,11.56844c0.10381,0.62125 0.64176,1.05424 1.25521,1.05424c0.0755,0 0.14157,-0.00941 0.21707,-0.01883c0.68895,-0.10354 1.16083,-0.76244 1.03814,-1.44959l-0.00001,0.00002z" id="svg_5"/>
   </g>
  </g>
  <g id="svg_6"/>
  <g id="svg_7"/>
  <g id="svg_8"/>
  <g id="svg_9"/>
  <g id="svg_10"/>
  <g id="svg_11"/>
  <g id="svg_12"/>
  <g id="svg_13"/>
  <g id="svg_14"/>
  <g id="svg_15"/>
  <g id="svg_16"/>
  <g id="svg_17"/>
  <g id="svg_18"/>
  <g id="svg_19"/>
  <g id="svg_20"/>
 </g>
</svg>