<svg width="40" height="40" xmlns="http://www.w3.org/2000/svg" xmlns:svg="http://www.w3.org/2000/svg">
 <g>
  <title>Layer 1</title>
  <ellipse fill="#ffffff" stroke-width="5" cx="19.94994" cy="19.96763" id="svg_20" rx="17.41965" ry="17.51976" stroke="null"/>
  <g stroke="null" id="svg_1">
   <g stroke="null" id="svg_2">
    <path fill="#314356" stroke="null" d="m19.98504,0c-11.01961,0 -19.98504,8.9645 -19.98504,19.98327s8.96542,19.98327 19.98504,19.98327c11.02011,0 19.98564,-8.9645 19.98564,-19.98327s-8.96552,-19.98327 -19.98564,-19.98327zm0,37.34574c-9.57407,0 -17.36386,-7.78878 -17.36386,-17.36247c0,-9.57369 7.78978,-17.36247 17.36386,-17.36247c9.57537,0 17.36446,7.78878 17.36446,17.36247c0.0001,9.57359 -7.78918,17.36247 -17.36446,17.36247z" id="svg_3"/>
    <path fill="#314356" stroke="null" d="m24.13819,10.97591c-0.51192,-0.51197 -1.34202,-0.51197 -1.85334,0l-8.08157,8.08054c-0.24582,0.24569 -0.38402,0.57912 -0.38402,0.92652c0,0.34751 0.1382,0.68073 0.38402,0.92642l8.08157,8.08074c0.25601,0.25599 0.59137,0.38408 0.92662,0.38408c0.33515,0 0.67141,-0.12799 0.92652,-0.38408c0.51192,-0.51147 0.51192,-1.34148 0,-1.85295l-7.15445,-7.15441l7.15445,-7.15401c0.51212,-0.51137 0.51212,-1.34128 0.0002,-1.85285z" id="svg_4"/>
   </g>
  </g>
  <g id="svg_5"/>
  <g id="svg_6"/>
  <g id="svg_7"/>
  <g id="svg_8"/>
  <g id="svg_9"/>
  <g id="svg_10"/>
  <g id="svg_11"/>
  <g id="svg_12"/>
  <g id="svg_13"/>
  <g id="svg_14"/>
  <g id="svg_15"/>
  <g id="svg_16"/>
  <g id="svg_17"/>
  <g id="svg_18"/>
  <g id="svg_19"/>
 </g>
</svg>