<svg width="512" height="512" xmlns="http://www.w3.org/2000/svg" xmlns:svg="http://www.w3.org/2000/svg" xmlns:xlink="http://www.w3.org/1999/xlink">
 <!-- Created with SVG-edit - http://svg-edit.googlecode.com/ -->
 <defs>
  <symbol viewBox="0 0 28.931 28.932" height="28.932px" width="28.931px" y="0px" x="0px" id="svg_2" xmlns:xlink="http://www.w3.org/1999/xlink" xmlns="http://www.w3.org/2000/svg">
   <g>
    <path d="m28.344,25.518l-6.114,-6.115c1.486,-2.067 2.303,-4.537 2.303,-7.137c0,-3.275 -1.275,-6.355 -3.594,-8.672c-2.314,-2.316 -5.396,-3.594 -8.673,-3.594c-3.276,0 -6.357,1.275 -8.673,3.594c-2.316,2.315 -3.592,5.396 -3.592,8.672c0,3.276 1.275,6.356 3.592,8.674c2.316,2.316 5.396,3.594 8.673,3.594c2.599,0 5.067,-0.813 7.136,-2.303l6.114,6.115c0.392,0.391 0.902,0.586 1.414,0.586c0.513,0 1.024,-0.195 1.414,-0.586c0.781,-0.782 0.781,-2.047 0,-2.828zm-21.922,-7.407c-1.562,-1.562 -2.421,-3.639 -2.421,-5.846s0.859,-4.282 2.421,-5.844c1.561,-1.562 3.636,-2.422 5.844,-2.422s4.284,0.86 5.845,2.422c1.562,1.562 2.422,3.638 2.422,5.845s-0.859,4.283 -2.422,5.846c-1.562,1.562 -3.636,2.42 -5.845,2.42s-4.285,-0.86 -5.844,-2.421z"/>
   </g>
   <g/>
   <g/>
   <g/>
   <g/>
   <g/>
   <g/>
   <g/>
   <g/>
   <g/>
   <g/>
   <g/>
   <g/>
   <g/>
   <g/>
   <g/>
  </symbol>
 </defs>
 <g>
  <title>Layer 1</title>
  <use fill="#a4cb09" x="26.95423" y="25.42851" transform="matrix(5.898889541625977,0,0,5.898889541625977,0,0) " xlink:href="#svg_2" id="svg_3"/>
  <g id="svg_4"/>
 </g>
</svg>